<mxfile host="app.diagrams.net" agent="Mozilla/5.0 (X11; Linux x86_64) AppleWebKit/537.36 (KHTML, like Gecko) Chrome/135.0.0.0 Safari/537.36" version="26.2.14">
  <diagram name="Pàgina-1" id="FMlzXqeNCn4fs9V2hCwn">
    <mxGraphModel dx="827" dy="734" grid="1" gridSize="10" guides="1" tooltips="1" connect="1" arrows="1" fold="1" page="1" pageScale="1" pageWidth="827" pageHeight="1169" math="0" shadow="0">
      <root>
        <mxCell id="0" />
        <mxCell id="1" parent="0" />
        <mxCell id="-7e7yDyc773HWohXfgpY-1" value="User" style="shape=umlActor;verticalLabelPosition=bottom;verticalAlign=top;html=1;outlineConnect=0;" vertex="1" parent="1">
          <mxGeometry x="70" y="230" width="30" height="60" as="geometry" />
        </mxCell>
        <mxCell id="-7e7yDyc773HWohXfgpY-3" value="" style="endArrow=classic;html=1;rounded=0;entryX=0;entryY=0.5;entryDx=0;entryDy=0;" edge="1" parent="1" source="-7e7yDyc773HWohXfgpY-1" target="-7e7yDyc773HWohXfgpY-4">
          <mxGeometry width="50" height="50" relative="1" as="geometry">
            <mxPoint x="230" y="290" as="sourcePoint" />
            <mxPoint x="200" y="260" as="targetPoint" />
          </mxGeometry>
        </mxCell>
        <mxCell id="-7e7yDyc773HWohXfgpY-4" value="&lt;font style=&quot;font-size: 15px;&quot;&gt;Registrar&lt;/font&gt;" style="ellipse;whiteSpace=wrap;html=1;" vertex="1" parent="1">
          <mxGeometry x="210" y="140" width="100" height="70" as="geometry" />
        </mxCell>
        <mxCell id="-7e7yDyc773HWohXfgpY-5" value="Usuario nuevo" style="text;html=1;align=center;verticalAlign=middle;whiteSpace=wrap;rounded=0;" vertex="1" parent="1">
          <mxGeometry x="120" y="170" width="60" height="30" as="geometry" />
        </mxCell>
        <mxCell id="-7e7yDyc773HWohXfgpY-6" value="" style="endArrow=classic;html=1;rounded=0;" edge="1" parent="1">
          <mxGeometry width="50" height="50" relative="1" as="geometry">
            <mxPoint x="100" y="250" as="sourcePoint" />
            <mxPoint x="210" y="340" as="targetPoint" />
          </mxGeometry>
        </mxCell>
        <mxCell id="-7e7yDyc773HWohXfgpY-7" value="&lt;font style=&quot;font-size: 15px;&quot;&gt;Iniciar sesion&lt;/font&gt;" style="ellipse;whiteSpace=wrap;html=1;" vertex="1" parent="1">
          <mxGeometry x="210" y="310" width="100" height="70" as="geometry" />
        </mxCell>
        <mxCell id="-7e7yDyc773HWohXfgpY-8" value="" style="endArrow=classic;html=1;rounded=0;" edge="1" parent="1">
          <mxGeometry width="50" height="50" relative="1" as="geometry">
            <mxPoint x="310" y="344.5" as="sourcePoint" />
            <mxPoint x="370" y="280" as="targetPoint" />
          </mxGeometry>
        </mxCell>
        <mxCell id="-7e7yDyc773HWohXfgpY-9" value="&lt;font style=&quot;font-size: 15px;&quot;&gt;Introducir departamento&lt;/font&gt;" style="ellipse;whiteSpace=wrap;html=1;" vertex="1" parent="1">
          <mxGeometry x="370" y="240" width="120" height="70" as="geometry" />
        </mxCell>
        <mxCell id="-7e7yDyc773HWohXfgpY-10" value="" style="endArrow=classic;html=1;rounded=0;exitX=1;exitY=0.5;exitDx=0;exitDy=0;" edge="1" parent="1" source="-7e7yDyc773HWohXfgpY-7">
          <mxGeometry width="50" height="50" relative="1" as="geometry">
            <mxPoint x="380" y="380" as="sourcePoint" />
            <mxPoint x="370" y="345" as="targetPoint" />
          </mxGeometry>
        </mxCell>
        <mxCell id="-7e7yDyc773HWohXfgpY-11" value="&lt;font style=&quot;font-size: 15px;&quot;&gt;Introducir fecha&lt;/font&gt;" style="ellipse;whiteSpace=wrap;html=1;" vertex="1" parent="1">
          <mxGeometry x="370" y="315" width="120" height="75" as="geometry" />
        </mxCell>
        <mxCell id="-7e7yDyc773HWohXfgpY-12" value="" style="endArrow=classic;html=1;rounded=0;" edge="1" parent="1">
          <mxGeometry width="50" height="50" relative="1" as="geometry">
            <mxPoint x="310" y="350" as="sourcePoint" />
            <mxPoint x="370" y="430" as="targetPoint" />
          </mxGeometry>
        </mxCell>
        <mxCell id="-7e7yDyc773HWohXfgpY-13" value="&lt;font style=&quot;font-size: 15px;&quot;&gt;Introducir descripción&lt;/font&gt;" style="ellipse;whiteSpace=wrap;html=1;" vertex="1" parent="1">
          <mxGeometry x="370" y="400" width="120" height="70" as="geometry" />
        </mxCell>
        <mxCell id="-7e7yDyc773HWohXfgpY-14" value="" style="endArrow=classic;html=1;rounded=0;" edge="1" parent="1">
          <mxGeometry width="50" height="50" relative="1" as="geometry">
            <mxPoint x="490" y="360" as="sourcePoint" />
            <mxPoint x="590" y="360" as="targetPoint" />
          </mxGeometry>
        </mxCell>
        <mxCell id="-7e7yDyc773HWohXfgpY-15" value="" style="endArrow=none;html=1;rounded=0;" edge="1" parent="1">
          <mxGeometry width="50" height="50" relative="1" as="geometry">
            <mxPoint x="490" y="280" as="sourcePoint" />
            <mxPoint x="550" y="280" as="targetPoint" />
          </mxGeometry>
        </mxCell>
        <mxCell id="-7e7yDyc773HWohXfgpY-16" value="" style="endArrow=none;html=1;rounded=0;" edge="1" parent="1">
          <mxGeometry width="50" height="50" relative="1" as="geometry">
            <mxPoint x="550" y="360" as="sourcePoint" />
            <mxPoint x="550" y="280" as="targetPoint" />
          </mxGeometry>
        </mxCell>
        <mxCell id="-7e7yDyc773HWohXfgpY-17" value="" style="endArrow=none;html=1;rounded=0;" edge="1" parent="1">
          <mxGeometry width="50" height="50" relative="1" as="geometry">
            <mxPoint x="490" y="440" as="sourcePoint" />
            <mxPoint x="560" y="440" as="targetPoint" />
          </mxGeometry>
        </mxCell>
        <mxCell id="-7e7yDyc773HWohXfgpY-18" value="" style="endArrow=none;html=1;rounded=0;" edge="1" parent="1">
          <mxGeometry width="50" height="50" relative="1" as="geometry">
            <mxPoint x="560" y="440" as="sourcePoint" />
            <mxPoint x="560" y="360" as="targetPoint" />
          </mxGeometry>
        </mxCell>
        <mxCell id="-7e7yDyc773HWohXfgpY-19" value="&lt;font style=&quot;font-size: 15px;&quot;&gt;Enviar datos de incidencia&lt;/font&gt;" style="ellipse;whiteSpace=wrap;html=1;" vertex="1" parent="1">
          <mxGeometry x="590" y="330" width="130" height="65" as="geometry" />
        </mxCell>
        <mxCell id="-7e7yDyc773HWohXfgpY-20" value="Técnico&lt;div&gt;&lt;br&gt;&lt;/div&gt;" style="shape=umlActor;verticalLabelPosition=bottom;verticalAlign=top;html=1;outlineConnect=0;" vertex="1" parent="1">
          <mxGeometry x="70" y="660" width="30" height="60" as="geometry" />
        </mxCell>
        <mxCell id="-7e7yDyc773HWohXfgpY-24" value="" style="endArrow=classic;html=1;rounded=0;exitX=1;exitY=0.3333333333333333;exitDx=0;exitDy=0;exitPerimeter=0;" edge="1" parent="1" source="-7e7yDyc773HWohXfgpY-20">
          <mxGeometry width="50" height="50" relative="1" as="geometry">
            <mxPoint x="120" y="690" as="sourcePoint" />
            <mxPoint x="180" y="590" as="targetPoint" />
          </mxGeometry>
        </mxCell>
        <mxCell id="-7e7yDyc773HWohXfgpY-25" value="&lt;font style=&quot;font-size: 15px;&quot;&gt;Registrar&lt;/font&gt;" style="ellipse;whiteSpace=wrap;html=1;" vertex="1" parent="1">
          <mxGeometry x="180" y="550" width="110" height="70" as="geometry" />
        </mxCell>
        <mxCell id="-7e7yDyc773HWohXfgpY-26" value="&lt;font style=&quot;font-size: 15px;&quot;&gt;Iniciar sesión&lt;/font&gt;" style="ellipse;whiteSpace=wrap;html=1;" vertex="1" parent="1">
          <mxGeometry x="180" y="710" width="110" height="70" as="geometry" />
        </mxCell>
        <mxCell id="-7e7yDyc773HWohXfgpY-27" value="" style="endArrow=classic;html=1;rounded=0;entryX=0;entryY=0.5;entryDx=0;entryDy=0;" edge="1" parent="1" target="-7e7yDyc773HWohXfgpY-26">
          <mxGeometry width="50" height="50" relative="1" as="geometry">
            <mxPoint x="100" y="680" as="sourcePoint" />
            <mxPoint x="180" y="660" as="targetPoint" />
          </mxGeometry>
        </mxCell>
        <mxCell id="-7e7yDyc773HWohXfgpY-28" value="" style="endArrow=classic;html=1;rounded=0;entryX=0;entryY=0.5;entryDx=0;entryDy=0;" edge="1" parent="1" target="-7e7yDyc773HWohXfgpY-29">
          <mxGeometry width="50" height="50" relative="1" as="geometry">
            <mxPoint x="290" y="750" as="sourcePoint" />
            <mxPoint x="310" y="670" as="targetPoint" />
          </mxGeometry>
        </mxCell>
        <mxCell id="-7e7yDyc773HWohXfgpY-29" value="&lt;font style=&quot;font-size: 15px;&quot;&gt;Preguntar código de incidencia&lt;/font&gt;" style="ellipse;whiteSpace=wrap;html=1;" vertex="1" parent="1">
          <mxGeometry x="370" y="620" width="160" height="60" as="geometry" />
        </mxCell>
        <mxCell id="-7e7yDyc773HWohXfgpY-30" value="" style="endArrow=classic;html=1;rounded=0;exitX=1;exitY=0.5;exitDx=0;exitDy=0;entryX=0;entryY=0.5;entryDx=0;entryDy=0;" edge="1" parent="1" source="-7e7yDyc773HWohXfgpY-26" target="-7e7yDyc773HWohXfgpY-31">
          <mxGeometry width="50" height="50" relative="1" as="geometry">
            <mxPoint x="330" y="760" as="sourcePoint" />
            <mxPoint x="410" y="700" as="targetPoint" />
          </mxGeometry>
        </mxCell>
        <mxCell id="-7e7yDyc773HWohXfgpY-31" value="&lt;font style=&quot;font-size: 15px;&quot;&gt;Modificar incidencia&lt;/font&gt;" style="ellipse;whiteSpace=wrap;html=1;" vertex="1" parent="1">
          <mxGeometry x="390" y="720" width="120" height="80" as="geometry" />
        </mxCell>
        <mxCell id="-7e7yDyc773HWohXfgpY-32" value="" style="endArrow=classic;html=1;rounded=0;entryX=0;entryY=0.5;entryDx=0;entryDy=0;" edge="1" parent="1" target="-7e7yDyc773HWohXfgpY-33">
          <mxGeometry width="50" height="50" relative="1" as="geometry">
            <mxPoint x="290" y="750" as="sourcePoint" />
            <mxPoint x="390" y="800" as="targetPoint" />
          </mxGeometry>
        </mxCell>
        <mxCell id="-7e7yDyc773HWohXfgpY-33" value="&lt;font style=&quot;font-size: 15px;&quot;&gt;Registrar actuación&lt;/font&gt;" style="ellipse;whiteSpace=wrap;html=1;" vertex="1" parent="1">
          <mxGeometry x="390" y="830" width="120" height="80" as="geometry" />
        </mxCell>
        <mxCell id="-7e7yDyc773HWohXfgpY-34" value="Administrador" style="shape=umlActor;verticalLabelPosition=bottom;verticalAlign=top;html=1;outlineConnect=0;" vertex="1" parent="1">
          <mxGeometry x="135" y="1260" width="30" height="60" as="geometry" />
        </mxCell>
        <mxCell id="-7e7yDyc773HWohXfgpY-35" value="&lt;font style=&quot;font-size: 15px;&quot;&gt;Iniciar sesión&lt;/font&gt;" style="ellipse;whiteSpace=wrap;html=1;" vertex="1" parent="1">
          <mxGeometry x="240" y="1250" width="120" height="80" as="geometry" />
        </mxCell>
        <mxCell id="-7e7yDyc773HWohXfgpY-36" value="" style="endArrow=classic;html=1;rounded=0;exitX=1;exitY=0.3333333333333333;exitDx=0;exitDy=0;exitPerimeter=0;entryX=0;entryY=0.5;entryDx=0;entryDy=0;" edge="1" parent="1" source="-7e7yDyc773HWohXfgpY-34" target="-7e7yDyc773HWohXfgpY-35">
          <mxGeometry width="50" height="50" relative="1" as="geometry">
            <mxPoint x="200" y="1310" as="sourcePoint" />
            <mxPoint x="250" y="1260" as="targetPoint" />
          </mxGeometry>
        </mxCell>
        <mxCell id="-7e7yDyc773HWohXfgpY-37" value="" style="endArrow=classic;html=1;rounded=0;exitX=1;exitY=0.5;exitDx=0;exitDy=0;" edge="1" parent="1" source="-7e7yDyc773HWohXfgpY-35">
          <mxGeometry width="50" height="50" relative="1" as="geometry">
            <mxPoint x="360" y="1300" as="sourcePoint" />
            <mxPoint x="430" y="1230" as="targetPoint" />
          </mxGeometry>
        </mxCell>
        <mxCell id="-7e7yDyc773HWohXfgpY-38" value="" style="ellipse;whiteSpace=wrap;html=1;" vertex="1" parent="1">
          <mxGeometry x="430" y="1185" width="120" height="80" as="geometry" />
        </mxCell>
        <mxCell id="-7e7yDyc773HWohXfgpY-39" value="&lt;font style=&quot;font-size: 15px;&quot;&gt;Pedir informes&lt;/font&gt;" style="text;html=1;align=center;verticalAlign=middle;whiteSpace=wrap;rounded=0;" vertex="1" parent="1">
          <mxGeometry x="460" y="1210" width="60" height="30" as="geometry" />
        </mxCell>
        <mxCell id="-7e7yDyc773HWohXfgpY-43" value="" style="endArrow=classic;html=1;rounded=0;exitX=1;exitY=0.5;exitDx=0;exitDy=0;" edge="1" parent="1" source="-7e7yDyc773HWohXfgpY-35">
          <mxGeometry width="50" height="50" relative="1" as="geometry">
            <mxPoint x="405" y="1370" as="sourcePoint" />
            <mxPoint x="430" y="1330" as="targetPoint" />
          </mxGeometry>
        </mxCell>
        <mxCell id="-7e7yDyc773HWohXfgpY-44" value="&lt;font style=&quot;font-size: 15px;&quot;&gt;Pedir estadisticas&lt;/font&gt;" style="ellipse;whiteSpace=wrap;html=1;" vertex="1" parent="1">
          <mxGeometry x="430" y="1290" width="140" height="80" as="geometry" />
        </mxCell>
        <mxCell id="-7e7yDyc773HWohXfgpY-46" value="" style="endArrow=classic;html=1;rounded=0;" edge="1" parent="1">
          <mxGeometry width="50" height="50" relative="1" as="geometry">
            <mxPoint x="550" y="1219" as="sourcePoint" />
            <mxPoint x="600" y="1169" as="targetPoint" />
          </mxGeometry>
        </mxCell>
        <mxCell id="-7e7yDyc773HWohXfgpY-47" value="&lt;font style=&quot;font-size: 15px;&quot;&gt;Pedir informes de técnicos&lt;/font&gt;" style="ellipse;whiteSpace=wrap;html=1;" vertex="1" parent="1">
          <mxGeometry x="600" y="1130" width="150" height="80" as="geometry" />
        </mxCell>
        <mxCell id="-7e7yDyc773HWohXfgpY-48" value="" style="endArrow=classic;html=1;rounded=0;exitX=1;exitY=0.5;exitDx=0;exitDy=0;" edge="1" parent="1" source="-7e7yDyc773HWohXfgpY-38">
          <mxGeometry width="50" height="50" relative="1" as="geometry">
            <mxPoint x="620" y="1300" as="sourcePoint" />
            <mxPoint x="600" y="1260" as="targetPoint" />
          </mxGeometry>
        </mxCell>
        <mxCell id="-7e7yDyc773HWohXfgpY-49" value="Pedir&amp;nbsp;" style="ellipse;whiteSpace=wrap;html=1;" vertex="1" parent="1">
          <mxGeometry x="600" y="1220" width="120" height="80" as="geometry" />
        </mxCell>
      </root>
    </mxGraphModel>
  </diagram>
</mxfile>
